<svg xmlns="http://www.w3.org/2000/svg" xmlns:xlink="http://www.w3.org/1999/xlink" version="1.1" x="0px" y="0px" viewBox="0 0 100 125" style="enable-background:new 0 0 100 100;" xml:space="preserve"><g><path d="M50,53.33c9.19,0,16.67-7.48,16.67-16.67C66.67,27.48,59.19,20,50,20s-16.67,7.48-16.67,16.67   C33.33,45.86,40.81,53.33,50,53.33z M50,24c6.98,0,12.67,5.68,12.67,12.67S56.98,49.33,50,49.33s-12.67-5.68-12.67-12.67   S43.02,24,50,24z"/><path d="M24.92,80h50.17C78.9,80,82,76.9,82,73.08c0-8.69-7.07-15.75-15.75-15.75h-32.5C25.07,57.33,18,64.4,18,73.08   C18,76.9,21.1,80,24.92,80z M33.75,61.33h32.5C72.73,61.33,78,66.6,78,73.08c0,1.61-1.31,2.92-2.92,2.92H24.92   C23.31,76,22,74.69,22,73.08C22,66.6,27.27,61.33,33.75,61.33z"/></g><text x="0" y="115" fill="#000000" font-size="5px" font-weight="bold" font-family="'Helvetica Neue', Helvetica, Arial-Unicode, Arial, Sans-serif">Created by Besticons</text><text x="0" y="120" fill="#000000" font-size="5px" font-weight="bold" font-family="'Helvetica Neue', Helvetica, Arial-Unicode, Arial, Sans-serif">from the Noun Project</text></svg>